<?xml version="1.0" standalone="no"?>
<!DOCTYPE svg PUBLIC "-//W3C//DTD SVG 20010904//EN"
 "http://www.w3.org/TR/2001/REC-SVG-20010904/DTD/svg10.dtd">
<svg version="1.0" xmlns="http://www.w3.org/2000/svg"
 width="1024.000000pt" height="1024.000000pt" viewBox="0 0 1024.000000 1024.000000"
 preserveAspectRatio="xMidYMid meet">

<g transform="translate(0.000000,1024.000000) scale(0.100000,-0.100000)"
fill="#000000" stroke="none">
<path d="M0 5120 l0 -5120 5120 0 5120 0 0 5120 0 5120 -5120 0 -5120 0 0
-5120z m5357 2999 c431 -35 863 -168 1219 -375 206 -119 436 -301 577 -457
426 -470 649 -1062 623 -1657 -9 -206 -28 -320 -88 -525 -19 -67 -66 -185 -78
-195 -3 -3 -6 -12 -8 -20 -6 -33 -25 -69 -33 -64 -5 3 -6 -2 -3 -10 3 -9 2
-16 -3 -16 -5 0 -9 -10 -10 -21 -3 -32 -124 -239 -136 -232 -6 3 -7 1 -3 -6
12 -18 -116 -186 -255 -335 -273 -292 -704 -545 -1103 -647 -71 -18 -88 -27
-136 -73 -30 -28 -154 -137 -275 -242 -746 -645 -742 -642 -812 -629 -50 9
-81 32 -104 77 -17 34 -83 198 -269 672 l-47 119 -85 17 c-560 114 -1094 453
-1442 917 -297 395 -446 839 -446 1333 0 335 70 628 229 956 127 261 264 448
488 665 291 281 622 480 1014 610 239 79 447 120 734 142 97 8 335 6 452 -4z"/>
<path d="M4855 7849 c-692 -71 -1287 -384 -1699 -893 -120 -149 -246 -365
-317 -544 -47 -117 -106 -362 -120 -497 -72 -707 285 -1415 926 -1838 175
-115 394 -214 691 -312 294 -97 289 -92 444 -495 45 -118 89 -232 97 -252 25
-63 43 -59 146 34 113 101 437 381 683 590 177 150 184 154 255 172 41 10 127
36 191 57 730 241 1279 920 1358 1679 73 705 -296 1440 -940 1869 -350 234
-738 372 -1200 426 -132 16 -382 18 -515 4z m1016 -220 c147 -73 162 -265 27
-360 -38 -28 -128 -37 -182 -19 -165 54 -185 297 -31 378 64 34 120 34 186 1z
m-601 -60 c79 -36 120 -86 139 -170 28 -125 -69 -257 -202 -275 -144 -20 -279
110 -265 256 15 156 185 254 328 189z m-529 -18 c56 -57 32 -155 -45 -181 -65
-21 -146 37 -146 104 1 66 44 105 118 106 35 0 49 -6 73 -29z m-546 -163 c90
-71 50 -198 -62 -198 -38 0 -50 5 -79 34 -28 28 -34 42 -34 76 0 89 106 143
175 88z m495 -229 c59 -18 129 -78 164 -139 28 -50 31 -63 31 -140 0 -69 -5
-93 -23 -127 -35 -66 -79 -110 -140 -140 -76 -37 -184 -39 -252 -4 -72 38
-114 76 -146 133 -25 47 -29 63 -28 133 0 66 5 89 26 130 73 142 213 200 368
154z m1859 -40 c25 -11 59 -32 75 -47 33 -31 86 -101 86 -114 0 -4 -63 -8
-140 -8 -85 0 -149 -5 -165 -12 -15 -7 -57 -58 -101 -125 -101 -151 -124 -167
-255 -171 -98 -4 -99 -4 -118 -35 -53 -86 -125 -127 -225 -127 -119 0 -221 79
-245 191 -25 117 38 240 148 287 20 8 65 15 101 15 54 1 74 -4 118 -28 49 -27
112 -96 112 -123 0 -32 90 -20 126 17 14 14 40 53 56 86 65 129 121 182 221
210 64 18 143 12 206 -16z m-2664 -83 c160 -72 193 -291 64 -417 l-49 -48 0
-69 c0 -55 4 -75 21 -96 36 -45 103 -78 174 -84 l65 -5 0 -134 0 -134 -152 3
c-136 3 -158 6 -200 26 -65 32 -125 94 -156 160 -24 51 -27 72 -30 197 l-4
140 -33 35 c-104 110 -109 262 -13 367 87 93 193 113 313 59z m1312 -293 c52
-34 50 -135 -3 -170 -88 -57 -203 38 -159 131 29 61 101 79 162 39z m1530 -30
c27 -19 28 -24 31 -122 l3 -101 -101 0 -101 0 3 -162 c3 -152 1 -166 -19 -204
-47 -87 -140 -143 -239 -144 -80 0 -144 23 -192 69 -60 59 -77 102 -77 201 0
100 20 147 85 203 53 45 111 61 204 55 l74 -5 7 36 c14 73 84 165 145 190 41
18 146 8 177 -16z m-3267 -303 l0 -150 -190 0 -190 0 1 142 c0 78 3 146 5 150
3 4 88 8 190 8 l184 0 0 -150z m3685 31 c88 -41 138 -119 137 -212 -1 -101
-54 -171 -157 -205 -145 -50 -305 61 -305 211 0 83 57 171 135 206 52 24 138
24 190 0z m-1883 -108 c53 -21 114 -93 128 -151 29 -123 -59 -257 -185 -281
-146 -28 -275 76 -275 221 0 179 159 280 332 211z m-532 -1239 l0 -1235 -27
21 c-16 12 -67 57 -114 100 l-86 79 -8 969 c-4 533 -4 1044 0 1135 l7 167 114
0 114 0 0 -1236z m1120 1000 l0 -156 49 -44 c112 -100 129 -249 43 -373 -67
-98 -199 -144 -315 -111 -64 17 -135 76 -171 140 -27 49 -31 64 -31 135 0 70
4 87 29 133 17 30 47 67 68 84 l38 30 0 159 0 159 145 0 145 0 0 -156z m-2559
-65 c120 -67 155 -219 76 -336 -45 -68 -112 -103 -197 -103 -80 0 -132 22
-181 77 -47 52 -62 99 -57 182 3 54 9 74 33 108 32 45 77 79 121 93 51 16 157
5 205 -21z m3813 -234 c140 -66 203 -235 146 -389 -24 -62 -80 -126 -138 -155
l-40 -20 -7 -173 c-7 -175 -26 -285 -47 -272 -7 4 -8 2 -4 -4 9 -15 -22 -74
-35 -67 -5 4 -8 1 -7 -7 2 -7 -3 -12 -9 -11 -7 2 -13 -3 -13 -11 0 -8 -5 -18
-12 -22 -7 -4 -8 -3 -4 4 4 7 2 12 -3 12 -6 0 -11 -5 -11 -11 0 -7 -9 -9 -22
-6 -21 6 -22 5 -5 -7 16 -12 15 -13 -9 -13 -14 0 -30 -6 -34 -13 -15 -24 -97
-2 -140 36 -73 66 -75 79 -75 514 0 424 0 420 65 515 85 123 262 167 404 100z
m-2944 -95 l0 -120 -285 0 -285 0 0 120 0 120 285 0 285 0 0 -120z m2242 39
c59 -42 57 -133 -3 -184 -55 -46 -153 -27 -179 35 -28 68 -6 133 54 161 46 21
86 17 128 -12z m-1175 -1009 c2 -569 -1 -956 -7 -960 -8 -5 -15 -155 -8 -194
2 -17 -3 -20 -35 -20 -38 0 -39 -1 -33 -31 3 -16 3 -25 -2 -20 -12 16 -32 16
-48 0 -16 -16 -10 -40 8 -29 7 4 8 2 4 -4 -4 -6 -13 -9 -21 -6 -9 4 -18 -2
-22 -14 -5 -10 -23 -32 -40 -47 l-33 -27 0 1150 0 1151 33 4 c17 2 70 4 117 3
l85 -1 2 -955z m-2022 716 c106 -45 69 -206 -47 -206 -32 0 -47 7 -74 34 -57
57 -43 132 31 170 37 20 47 20 90 2z m680 -109 c19 -27 19 -86 0 -113 -52 -75
-165 -37 -165 56 0 19 8 45 18 58 35 45 115 45 147 -1z m2532 -134 l-2 -148
-152 -3 -153 -3 0 151 0 150 154 0 155 0 -2 -147z m-2147 -3 c44 -22 65 -45
85 -93 29 -71 14 -135 -49 -205 l-36 -39 0 -392 0 -392 -37 7 c-50 8 -132 46
-160 73 -55 53 -57 62 -61 406 -3 317 -3 321 -28 366 -30 59 -32 127 -3 186
47 98 182 136 289 83z m1518 -15 c85 -36 162 -147 162 -236 0 -64 -24 -138
-60 -181 -36 -43 -116 -85 -181 -94 -158 -21 -318 137 -294 289 24 148 125
237 268 237 39 0 84 -7 105 -15z m-2234 -17 c64 -19 141 -101 161 -173 38
-129 -24 -258 -149 -310 -19 -8 -64 -15 -99 -15 -117 0 -211 69 -244 179 -18
65 -13 133 16 189 25 48 99 115 143 129 46 15 123 15 172 1z m2876 -473 c87
-44 132 -119 133 -225 1 -145 -104 -252 -250 -252 -200 0 -329 215 -226 379
76 123 216 163 343 98z m-2671 -121 c26 -22 31 -33 31 -71 0 -38 -5 -50 -34
-79 -23 -23 -43 -34 -62 -34 -65 0 -124 68 -110 126 20 78 114 110 175 58z
m2047 -172 c68 -35 109 -96 119 -173 3 -26 2 -34 -3 -21 -7 22 -7 22 -18 -5
-7 -16 -15 -40 -18 -55 -4 -16 -10 -27 -14 -27 -24 4 -42 -3 -42 -16 0 -8 -6
-15 -12 -16 -10 0 -10 -2 0 -6 10 -4 8 -9 -7 -20 -12 -8 -26 -11 -33 -7 -8 5
-9 2 -5 -9 4 -10 2 -17 -5 -17 -7 0 -7 -4 1 -13 12 -16 17 -14 -84 -25 -38 -4
-79 -13 -91 -19 -21 -12 -69 -64 -111 -119 l-23 -29 3 215 c2 209 3 216 27
259 65 116 204 161 316 103z"/>
<path d="M5140 7392 c-43 -35 -15 -112 41 -112 27 0 59 35 59 65 0 30 -32 65
-59 65 -10 0 -29 -8 -41 -18z"/>
<path d="M4523 6980 c-109 -66 -64 -240 61 -240 95 0 159 95 122 183 -29 70
-117 97 -183 57z"/>
<path d="M5673 6805 c-40 -17 -55 -39 -56 -81 -1 -29 5 -42 32 -66 28 -25 39
-29 70 -24 74 11 104 88 56 144 -29 35 -62 44 -102 27z"/>
<path d="M3699 6861 c-41 -41 -40 -91 1 -133 28 -28 36 -30 78 -25 34 4 53 12
69 32 54 62 8 155 -77 155 -33 0 -48 -6 -71 -29z"/>
<path d="M6252 6333 c-59 -29 -77 -93 -43 -149 68 -111 246 -10 186 106 -15
29 -65 60 -97 60 -7 0 -28 -8 -46 -17z"/>
<path d="M7005 6285 c-30 -30 -31 -54 -4 -89 40 -50 119 -24 119 40 0 68 -68
97 -115 49z"/>
<path d="M5117 6162 c-50 -55 16 -128 84 -92 25 14 26 71 1 93 -24 22 -65 21
-85 -1z"/>
<path d="M5670 5783 c-31 -11 -70 -58 -76 -91 -14 -72 53 -139 128 -129 78 10
126 92 93 160 -24 51 -92 79 -145 60z"/>
<path d="M3126 5859 c-31 -25 -34 -61 -6 -89 39 -39 110 -11 110 44 0 25 -41
66 -65 66 -7 0 -24 -9 -39 -21z"/>
<path d="M6874 5617 c-47 -43 -57 -113 -24 -165 72 -115 255 -46 237 89 -9 66
-59 109 -127 109 -43 0 -56 -5 -86 -33z"/>
<path d="M4084 4986 c-48 -48 -48 -101 0 -153 27 -30 41 -37 69 -37 47 0 83
34 92 85 20 115 -84 182 -161 105z"/>
<path d="M5629 5025 c-40 -22 -63 -78 -49 -119 15 -47 42 -68 94 -73 56 -7 91
14 112 64 39 92 -66 178 -157 128z"/>
<path d="M3421 5006 c-59 -33 -67 -102 -17 -152 85 -85 206 10 151 117 -24 46
-85 62 -134 35z"/>
<path d="M6255 4500 c-42 -46 -10 -120 52 -120 42 0 73 30 73 70 0 62 -84 95
-125 50z"/>
<path d="M5652 4254 c-44 -30 -23 -101 34 -118 33 -10 74 28 74 68 0 58 -58
85 -108 50z"/>
<path d="M7526 4753 c-6 -14 -5 -15 5 -6 7 7 10 15 7 18 -3 3 -9 -2 -12 -12z"/>
</g>
</svg>
